HIERARCHY
ROOT hip
{
  OFFSET 0 90.174 2.4664
  CHANNELS 6 Xposition Yposition Zposition Zrotation Xrotation Yrotation
  JOINT abdomen
  {
    OFFSET 0 -1.186 -1.5018
    CHANNELS 6 Xposition Yposition Zposition Zrotation Xrotation Yrotation
    JOINT abdomen2
    {
      OFFSET 0 9.964 0.2134
      CHANNELS 6 Xposition Yposition Zposition Zrotation Xrotation Yrotation
      JOINT chest
      {
        OFFSET 0 13.134 -3.2573
        CHANNELS 6 Xposition Yposition Zposition Zrotation Xrotation Yrotation
        JOINT neck
        {
          OFFSET 0 20.686 -1.6905
          CHANNELS 6 Xposition Yposition Zposition Zrotation Xrotation Yrotation
          JOINT head
          {
            OFFSET 0 7.238 -0.1237
            CHANNELS 6 Xposition Yposition Zposition Zrotation Xrotation Yrotation
            End Site
            {
              OFFSET 0 0 0
            }
          }
        }
        JOINT lCollar
        {
          OFFSET 1.7069 20.075 5.0056
          CHANNELS 6 Xposition Yposition Zposition Zrotation Xrotation Yrotation
          JOINT lShldr
          {
            OFFSET 13.6458 -0.047 -4.849
            CHANNELS 6 Xposition Yposition Zposition Zrotation Xrotation Yrotation
            JOINT lForeArm
            {
              OFFSET 28.3255 -0.9759 2.2888
              CHANNELS 6 Xposition Yposition Zposition Zrotation Xrotation Yrotation
              JOINT lHand
              {
                OFFSET 22.1583 -0.53 10.8316
                CHANNELS 6 Xposition Yposition Zposition Zrotation Xrotation Yrotation
                JOINT lThumb1
                {
                  OFFSET 0.786 0.112 2.5817
                  CHANNELS 6 Xposition Yposition Zposition Zrotation Xrotation Yrotation
                  JOINT lThumb2
                  {
                    OFFSET 0.3601 -0.878 4.2331
                    CHANNELS 6 Xposition Yposition Zposition Zrotation Xrotation Yrotation
                    JOINT lThumb2_End
                    {
                      OFFSET 1.8127 -1.216 2.2227
                      CHANNELS 6 Xposition Yposition Zposition Zrotation Xrotation Yrotation
                      End Site
                      {
                        OFFSET 0.0181 -0.0122 0.0222
                      }
                    }
                  }
                }
                JOINT lCarpal1
                {
                  OFFSET 0.9571 1.114 1.7695
                  CHANNELS 6 Xposition Yposition Zposition Zrotation Xrotation Yrotation
                  JOINT lIndex1
                  {
                    OFFSET 4.1246 0.487 4.1451
                    CHANNELS 6 Xposition Yposition Zposition Zrotation Xrotation Yrotation
                    JOINT lIndex2
                    {
                      OFFSET 3.4052 -1.454 2.7682
                      CHANNELS 6 Xposition Yposition Zposition Zrotation Xrotation Yrotation
                      JOINT lIndex2_End
                      {
                        OFFSET 1.4531 -1.795 1.2713
                        CHANNELS 6 Xposition Yposition Zposition Zrotation Xrotation Yrotation
                        End Site
                        {
                          OFFSET 0.0145 -0.0179 0.0127
                        }
                      }
                    }
                  }
                  JOINT lMid1
                  {
                    OFFSET 5.6954 0.21 2.1184
                    CHANNELS 6 Xposition Yposition Zposition Zrotation Xrotation Yrotation
                    JOINT lMid2
                    {
                      OFFSET 3.9766 -1.54 2.3863
                      CHANNELS 6 Xposition Yposition Zposition Zrotation Xrotation Yrotation
                      JOINT lMid2_End
                      {
                        OFFSET 1.4042 -1.926 1.125
                        CHANNELS 6 Xposition Yposition Zposition Zrotation Xrotation Yrotation
                        End Site
                        {
                          OFFSET 0.014 -0.0193 0.0113
                        }
                      }
                    }
                  }
                }
                JOINT lCarpal2
                {
                  OFFSET 2.0956 0.66 -0.3894
                  CHANNELS 6 Xposition Yposition Zposition Zrotation Xrotation Yrotation
                  JOINT lRing1
                  {
                    OFFSET 5.0395 -0.09 2.4971
                    CHANNELS 6 Xposition Yposition Zposition Zrotation Xrotation Yrotation
                    JOINT lRing2
                    {
                      OFFSET 3.7921 -1.552 1.4806
                      CHANNELS 6 Xposition Yposition Zposition Zrotation Xrotation Yrotation
                      JOINT lRing2_End
                      {
                        OFFSET 1.4655 -1.808 0.9609
                        CHANNELS 6 Xposition Yposition Zposition Zrotation Xrotation Yrotation
                        End Site
                        {
                          OFFSET 0.0147 -0.0181 0.0096
                        }
                      }
                    }
                  }
                  JOINT lPinky1
                  {
                    OFFSET 4.9141 -1.269 0.3591
                    CHANNELS 6 Xposition Yposition Zposition Zrotation Xrotation Yrotation
                    JOINT lPinky2
                    {
                      OFFSET 3.1477 -1.685 0.8462
                      CHANNELS 6 Xposition Yposition Zposition Zrotation Xrotation Yrotation
                      JOINT lPinky2_End
                      {
                        OFFSET 0.8055 -1.585 0.7955
                        CHANNELS 6 Xposition Yposition Zposition Zrotation Xrotation Yrotation
                        End Site
                        {
                          OFFSET 0.0081 -0.0158 0.008
                        }
                      }
                    }
                  }
                }
              }
            }
          }
        }
        JOINT rCollar
        {
          OFFSET -1.7069 20.075 5.0056
          CHANNELS 6 Xposition Yposition Zposition Zrotation Xrotation Yrotation
          JOINT rShldr
          {
            OFFSET -13.6458 -0.047 -4.849
            CHANNELS 6 Xposition Yposition Zposition Zrotation Xrotation Yrotation
            JOINT rForeArm
            {
              OFFSET -28.3255 -0.9759 2.2888
              CHANNELS 6 Xposition Yposition Zposition Zrotation Xrotation Yrotation
              JOINT rHand
              {
                OFFSET -22.1583 -0.53 10.8316
                CHANNELS 6 Xposition Yposition Zposition Zrotation Xrotation Yrotation
                JOINT rThumb1
                {
                  OFFSET -0.786 0.112 2.5817
                  CHANNELS 6 Xposition Yposition Zposition Zrotation Xrotation Yrotation
                  JOINT rThumb2
                  {
                    OFFSET -0.3601 -0.878 4.2331
                    CHANNELS 6 Xposition Yposition Zposition Zrotation Xrotation Yrotation
                    JOINT rThumb2_End
                    {
                      OFFSET -1.8127 -1.216 2.2227
                      CHANNELS 6 Xposition Yposition Zposition Zrotation Xrotation Yrotation
                      End Site
                      {
                        OFFSET -0.0181 -0.0122 0.0222
                      }
                    }
                  }
                }
                JOINT rCarpal1
                {
                  OFFSET -0.9571 1.114 1.7695
                  CHANNELS 6 Xposition Yposition Zposition Zrotation Xrotation Yrotation
                  JOINT rIndex1
                  {
                    OFFSET -4.1246 0.487 4.1451
                    CHANNELS 6 Xposition Yposition Zposition Zrotation Xrotation Yrotation
                    JOINT rIndex2
                    {
                      OFFSET -3.4052 -1.454 2.7682
                      CHANNELS 6 Xposition Yposition Zposition Zrotation Xrotation Yrotation
                      JOINT rIndex2_End
                      {
                        OFFSET -1.4531 -1.795 1.2713
                        CHANNELS 6 Xposition Yposition Zposition Zrotation Xrotation Yrotation
                        End Site
                        {
                          OFFSET -0.0145 -0.018 0.0127
                        }
                      }
                    }
                  }
                  JOINT rMid1
                  {
                    OFFSET -5.6954 0.21 2.1184
                    CHANNELS 6 Xposition Yposition Zposition Zrotation Xrotation Yrotation
                    JOINT rMid2
                    {
                      OFFSET -3.9766 -1.54 2.3863
                      CHANNELS 6 Xposition Yposition Zposition Zrotation Xrotation Yrotation
                      JOINT rMid2_End
                      {
                        OFFSET -1.4042 -1.926 1.125
                        CHANNELS 6 Xposition Yposition Zposition Zrotation Xrotation Yrotation
                        End Site
                        {
                          OFFSET -0.014 -0.0193 0.0113
                        }
                      }
                    }
                  }
                }
                JOINT rCarpal2
                {
                  OFFSET -2.0956 0.66 -0.3894
                  CHANNELS 6 Xposition Yposition Zposition Zrotation Xrotation Yrotation
                  JOINT rRing1
                  {
                    OFFSET -5.0395 -0.09 2.4971
                    CHANNELS 6 Xposition Yposition Zposition Zrotation Xrotation Yrotation
                    JOINT rRing2
                    {
                      OFFSET -3.7921 -1.552 1.4806
                      CHANNELS 6 Xposition Yposition Zposition Zrotation Xrotation Yrotation
                      JOINT rRing2_End
                      {
                        OFFSET -1.4655 -1.808 0.9609
                        CHANNELS 6 Xposition Yposition Zposition Zrotation Xrotation Yrotation
                        End Site
                        {
                          OFFSET -0.0147 -0.0181 0.0096
                        }
                      }
                    }
                  }
                  JOINT rPinky1
                  {
                    OFFSET -4.9141 -1.269 0.3592
                    CHANNELS 6 Xposition Yposition Zposition Zrotation Xrotation Yrotation
                    JOINT rPinky2
                    {
                      OFFSET -3.1477 -1.685 0.8462
                      CHANNELS 6 Xposition Yposition Zposition Zrotation Xrotation Yrotation
                      JOINT rPinky2_End
                      {
                        OFFSET -0.8055 -1.585 0.7955
                        CHANNELS 6 Xposition Yposition Zposition Zrotation Xrotation Yrotation
                        End Site
                        {
                          OFFSET -0.0081 -0.0158 0.008
                        }
                      }
                    }
                  }
                }
              }
            }
          }
        }
      }
    }
  }
  JOINT lThigh
  {
    OFFSET 8.367 -8.2066 0.5982
    CHANNELS 6 Xposition Yposition Zposition Zrotation Xrotation Yrotation
    JOINT lShin
    {
      OFFSET 2.1923 -43.463 -0.4932
      CHANNELS 6 Xposition Yposition Zposition Zrotation Xrotation Yrotation
      JOINT lFoot
      {
        OFFSET 0.7333 -45.8593 -2.6451
        CHANNELS 6 Xposition Yposition Zposition Zrotation Xrotation Yrotation
        End Site
        {
          OFFSET 2.6618 -4.2699 12.3931
        }
      }
    }
  }
  JOINT rThigh
  {
    OFFSET -8.367 -8.2066 0.5982
    CHANNELS 6 Xposition Yposition Zposition Zrotation Xrotation Yrotation
    JOINT rShin
    {
      OFFSET -2.1923 -43.463 -0.4931
      CHANNELS 6 Xposition Yposition Zposition Zrotation Xrotation Yrotation
      JOINT rFoot
      {
        OFFSET -0.7333 -45.8593 -2.6451
        CHANNELS 6 Xposition Yposition Zposition Zrotation Xrotation Yrotation
        End Site
        {
          OFFSET -2.6618 -4.2699 12.3931
        }
      }
    }
  }
}
MOTION
Frames:	4
Frame Time:	0.0333333
-55.0425 88.0727 1.12459 -180 -6.99617 -7.01671e-015 0 -1.186 -1.5018 -0.125954 -0.361756 -0.231203 7.10543e-015 9.964 0.2134 -0.253374 -0.722982 -0.463214 0 13.134 -3.2573 -0.253374 -0.722988 -0.463214 -7.10543e-015 20.686 -1.6905 -2.40319e-005 33.7236 0.00023502 7.10543e-015 7.238 -0.1237 -8.36893e-007 -77.4286 -7.86628e-007 1.7069 20.075 5.0056 -15.4776 -3.67972 34.145 13.6458 -0.047 -4.849 0.78282 -3.2136 -74.1722 28.3255 -0.9759 2.2888 -22.2199 1.38624 -59.6115 22.1583 -0.53 10.8316 -43.5566 -36.8284 -20.123 0.786 0.112 2.5817 -7.88367e-007 1.55036e-006 1.145e-006 0.3601 -0.878 4.2331 4.3964e-006 -7.68072e-007 3.91146e-007 1.8127 -1.216 2.2227 1.59028e-014 -9.34288e-015 -3.37934e-015 0.9571 1.114 1.7695 6.36111e-015 -4.77083e-015 -5.96354e-016 4.1246 0.487 4.1451 -7.88367e-007 1.55036e-006 1.145e-006 3.4052 -1.454 2.7682 4.3964e-006 -7.68072e-007 3.91146e-007 1.4531 -1.795 1.2713 3.18055e-015 -3.57812e-015 -2.78299e-015 5.6954 0.21 2.1184 -7.88367e-007 1.55036e-006 1.145e-006 3.9766 -1.54 2.3863 4.3964e-006 -7.68072e-007 3.91146e-007 1.4042 -1.926 1.125 3.18055e-015 -3.57812e-015 -2.78299e-015 2.0956 0.66 -0.3894 6.36111e-015 -4.77083e-015 -5.96354e-016 5.0395 -0.09 2.4971 -7.88367e-007 1.55036e-006 1.145e-006 3.7921 -1.552 1.4806 4.3964e-006 -7.68072e-007 3.91146e-007 1.4655 -1.808 0.9609 3.18055e-015 -3.57812e-015 -2.78299e-015 4.9141 -1.269 0.3591 -7.88367e-007 1.55036e-006 1.145e-006 3.1477 -1.685 0.8462 4.3964e-006 -7.68072e-007 3.91146e-007 0.8055 -1.585 0.7955 3.18055e-015 -3.57812e-015 -2.78299e-015 -1.7069 20.075 5.0056 14.2983 -7.25238 -32.9721 -13.6458 -0.047 -4.849 -6.48731 0.392874 81.3721 -28.3255 -0.9759 2.2888 20.1098 -3.8388 57.0017 -22.1583 -0.53 10.8316 47.1259 -33.4946 20.9777 -0.786 0.112 2.5817 -1.87822e-006 -4.46753e-006 -1.666e-006 -0.3601 -0.878 4.2331 -1.24637e-006 -6.54795e-007 9.53183e-007 -1.8127 -1.216 2.2227 -3.15274e-006 -3.38872e-007 -1.53957e-006 -0.9571 1.114 1.7695 6.36111e-015 -7.95139e-016 -3.97569e-016 -4.1246 0.487 4.1451 -1.87822e-006 -4.46753e-006 -1.666e-006 -3.4052 -1.454 2.7682 -1.24637e-006 -6.54795e-007 9.53183e-007 -1.4531 -1.795 1.2713 -3.15274e-006 -3.38872e-007 -1.53957e-006 -5.6954 0.21 2.1184 -1.87822e-006 -4.46753e-006 -1.666e-006 -3.9766 -1.54 2.3863 -1.24637e-006 -6.54795e-007 9.53183e-007 -1.4042 -1.926 1.125 -3.15274e-006 -3.38872e-007 -1.53957e-006 -2.0956 0.66 -0.3894 6.36111e-015 -7.95139e-016 -3.97569e-016 -5.0395 -0.09 2.4971 -1.87822e-006 -4.46753e-006 -1.666e-006 -3.7921 -1.552 1.4806 -1.24637e-006 -6.54795e-007 9.53183e-007 -1.4655 -1.808 0.9609 -3.15274e-006 -3.38872e-007 -1.53957e-006 -4.9141 -1.269 0.3592 -1.87822e-006 -4.46753e-006 -1.666e-006 -3.1477 -1.685 0.8462 -1.24637e-006 -6.54795e-007 9.53183e-007 -0.8055 -1.585 0.7955 -3.15274e-006 -3.38872e-007 -1.53957e-006 8.367 -8.2066 0.5982 35.3808 -51.0527 37.3841 2.1923 -43.463 -0.4932 -110.724 37.5858 109.031 0.7333 -45.8593 -2.6451 34.9537 17.5021 -36.8469 -8.367 -8.2066 0.5982 -55.9666 -50.4661 -58.8764 -2.1923 -43.463 -0.4931 114.122 39.266 -105.361 -0.7333 -45.8593 -2.6451 -31.1839 22.0044 35.6427 
-55.0425 88.0723 1.12406 -180 -6.99617 -7.01671e-015 0 -1.186 -1.5018 -0.125474 -0.510697 -0.231879 -7.10543e-015 9.964 0.2134 -0.25303 -1.02087 -0.464904 7.10543e-015 13.134 -3.2573 -0.25303 -1.02087 -0.464904 -7.10543e-015 20.686 -1.6905 -2.1539e-006 33.3752 1.28952e-005 1.42109e-014 7.238 -0.1237 8.3749e-007 -75.4173 6.90416e-007 1.7069 20.075 5.0056 -15.6412 -3.1326 32.8819 13.6458 -0.047 -4.849 1.12446 -3.03517 -73.9155 28.3255 -0.9759 2.2888 -22.1701 0.949478 -58.5149 22.1583 -0.53 10.8316 -43.7399 -36.6683 -20.0896 0.786 0.112 2.5817 5.95473e-006 8.01903e-006 -3.1993e-006 0.3601 -0.878 4.2331 -4.20011e-031 -4.17448e-015 -5.76476e-015 1.8127 -1.216 2.2227 2.39431e-006 -1.28638e-006 -2.00425e-006 0.9571 1.114 1.7695 -3.18055e-015 3.77691e-015 2.78299e-015 4.1246 0.487 4.1451 5.95473e-006 8.01903e-006 -3.1993e-006 3.4052 -1.454 2.7682 -7.07604e-031 -5.36719e-015 -7.55382e-015 1.4531 -1.795 1.2713 2.39431e-006 -1.28638e-006 -2.00425e-006 5.6954 0.21 2.1184 5.95473e-006 8.01903e-006 -3.1993e-006 3.9766 -1.54 2.3863 -7.07604e-031 -5.36719e-015 -7.55382e-015 1.4042 -1.926 1.125 2.39431e-006 -1.28638e-006 -2.00425e-006 2.0956 0.66 -0.3894 -3.18055e-015 3.77691e-015 2.78299e-015 5.0395 -0.09 2.4971 5.95473e-006 8.01903e-006 -3.1993e-006 3.7921 -1.552 1.4806 -7.07604e-031 -5.36719e-015 -7.55382e-015 1.4655 -1.808 0.9609 2.39431e-006 -1.28638e-006 -2.00425e-006 4.9141 -1.269 0.3591 5.95473e-006 8.01903e-006 -3.1993e-006 3.1477 -1.685 0.8462 -7.07604e-031 -5.36719e-015 -7.55382e-015 0.8055 -1.585 0.7955 2.39431e-006 -1.28638e-006 -2.00425e-006 -1.7069 20.075 5.0056 14.6015 -6.55278 -31.7454 -13.6458 -0.047 -4.849 -6.97752 0.800669 80.0844 -28.3255 -0.9759 2.2888 20.0479 -3.9974 56.4513 -22.1583 -0.53 10.8316 47.3372 -33.2544 21.0321 -0.786 0.112 2.5817 -1.24087e-006 -6.5785e-007 9.58703e-007 -0.3601 -0.878 4.2331 -6.93721e-006 -4.52986e-006 -5.67748e-006 -1.8127 -1.216 2.2227 -1.24087e-006 -6.5785e-007 9.58703e-007 -0.9571 1.114 1.7695 3.18055e-015 3.97569e-016 -1.59028e-015 -4.1246 0.487 4.1451 -1.24087e-006 -6.5785e-007 9.58703e-007 -3.4052 -1.454 2.7682 -6.93721e-006 -4.52986e-006 -5.67748e-006 -1.4531 -1.795 1.2713 -1.24087e-006 -6.5785e-007 9.58703e-007 -5.6954 0.21 2.1184 -1.24087e-006 -6.5785e-007 9.58703e-007 -3.9766 -1.54 2.3863 -6.93721e-006 -4.52986e-006 -5.67748e-006 -1.4042 -1.926 1.125 -1.24087e-006 -6.5785e-007 9.58703e-007 -2.0956 0.66 -0.3894 3.18055e-015 3.97569e-016 -1.59028e-015 -5.0395 -0.09 2.4971 -1.24087e-006 -6.5785e-007 9.58703e-007 -3.7921 -1.552 1.4806 -6.93721e-006 -4.52986e-006 -5.67748e-006 -1.4655 -1.808 0.9609 -1.24087e-006 -6.5785e-007 9.58703e-007 -4.9141 -1.269 0.3592 -1.24087e-006 -6.5785e-007 9.58703e-007 -3.1477 -1.685 0.8462 -6.93721e-006 -4.52986e-006 -5.67748e-006 -0.8055 -1.585 0.7955 -1.24087e-006 -6.5785e-007 9.58703e-007 8.367 -8.2066 0.5982 35.2978 -51.4816 37.0457 2.1923 -43.463 -0.4932 -110.725 37.5862 109.036 0.7333 -45.8593 -2.6451 34.4641 17.6843 -36.5652 -8.367 -8.2066 0.5982 -56.0215 -50.6273 -58.8376 -2.1923 -43.463 -0.4931 114.12 39.2664 -105.362 -0.7333 -45.8593 -2.6451 -30.9851 22.0455 35.5151 
-55.0426 88.0719 1.12358 -180 -6.99617 -7.01671e-015 0 -1.186 -1.5018 -0.125067 -0.643879 -0.232519 -7.10543e-015 9.964 0.2134 -0.25277 -1.28728 -0.466488 0 13.134 -3.2573 -0.252771 -1.28728 -0.466488 0 20.686 -1.6905 -6.89874e-006 33.0642 7.57378e-005 0 7.238 -0.1237 7.47759e-007 -73.6111 1.02469e-006 1.7069 20.075 5.0056 -15.7782 -2.64065 31.7528 13.6458 -0.047 -4.849 1.42901 -2.87514 -73.6869 28.3255 -0.9759 2.2888 -22.1187 0.567049 -57.5321 22.1583 -0.53 10.8316 -43.9033 -36.5254 -20.0592 0.786 0.112 2.5817 -1.19744e-006 6.43583e-007 1.00269e-006 0.3601 -0.878 4.2331 -6.28481e-007 4.93421e-006 -2.39043e-006 1.8127 -1.216 2.2227 8.07939e-007 1.1427e-006 3.39756e-006 0.9571 1.114 1.7695 -3.18055e-015 -3.57812e-015 -1.98785e-015 4.1246 0.487 4.1451 -1.19744e-006 6.43583e-007 1.00269e-006 3.4052 -1.454 2.7682 -6.28481e-007 4.93421e-006 -2.39043e-006 1.4531 -1.795 1.2713 8.07939e-007 1.1427e-006 3.39756e-006 5.6954 0.21 2.1184 -1.19744e-006 6.43583e-007 1.00269e-006 3.9766 -1.54 2.3863 -6.28481e-007 4.93421e-006 -2.39043e-006 1.4042 -1.926 1.125 8.07939e-007 1.1427e-006 3.39756e-006 2.0956 0.66 -0.3894 -3.18055e-015 -3.57812e-015 -1.98785e-015 5.0395 -0.09 2.4971 -1.19744e-006 6.43583e-007 1.00269e-006 3.7921 -1.552 1.4806 -6.28481e-007 4.93421e-006 -2.39043e-006 1.4655 -1.808 0.9609 8.07939e-007 1.1427e-006 3.39756e-006 4.9141 -1.269 0.3591 -1.19744e-006 6.43583e-007 1.00269e-006 3.1477 -1.685 0.8462 -6.28481e-007 4.93421e-006 -2.39043e-006 0.8055 -1.585 0.7955 8.07939e-007 1.1427e-006 3.39756e-006 -1.7069 20.075 5.0056 14.8612 -5.92185 -30.6511 -13.6458 -0.047 -4.849 -7.40647 1.1967 78.9457 -28.3255 -0.9759 2.2888 19.9914 -4.13815 55.9592 -22.1583 -0.53 10.8316 47.5252 -33.0398 21.0796 -0.786 0.112 2.5817 -1.23069e-006 2.7148e-006 6.95401e-007 -0.3601 -0.878 4.2331 -3.18055e-015 -5.1684e-015 7.95139e-016 -1.8127 -1.216 2.2227 1.23069e-006 -2.7148e-006 -6.95401e-007 -0.9571 1.114 1.7695 -6.36111e-015 -1.59028e-015 3.57812e-015 -4.1246 0.487 4.1451 -1.23069e-006 2.7148e-006 6.95401e-007 -3.4052 -1.454 2.7682 3.18055e-015 1.59028e-015 -2.38542e-015 -1.4531 -1.795 1.2713 1.23069e-006 -2.7148e-006 -6.95401e-007 -5.6954 0.21 2.1184 -1.23069e-006 2.7148e-006 6.95401e-007 -3.9766 -1.54 2.3863 3.18055e-015 1.59028e-015 -2.38542e-015 -1.4042 -1.926 1.125 1.23069e-006 -2.7148e-006 -6.95401e-007 -2.0956 0.66 -0.3894 -6.36111e-015 -1.59028e-015 3.57812e-015 -5.0395 -0.09 2.4971 -1.23069e-006 2.7148e-006 6.95401e-007 -3.7921 -1.552 1.4806 3.18055e-015 1.59028e-015 -2.38542e-015 -1.4655 -1.808 0.9609 1.23069e-006 -2.7148e-006 -6.95401e-007 -4.9141 -1.269 0.3592 -1.23069e-006 2.7148e-006 6.95401e-007 -3.1477 -1.685 0.8462 3.18055e-015 1.59028e-015 -2.38542e-015 -0.8055 -1.585 0.7955 1.23069e-006 -2.7148e-006 -6.95401e-007 8.367 -8.2066 0.5982 35.2204 -51.864 36.7404 2.1923 -43.463 -0.4932 -110.727 37.5865 109.04 0.7333 -45.8593 -2.6451 34.0256 17.845 -36.3116 -8.367 -8.2066 0.5982 -56.0739 -50.7695 -58.8056 -2.1923 -43.463 -0.4931 114.122 39.2662 -105.364 -0.7333 -45.8593 -2.6451 -30.8074 22.0819 35.401 
-55.0426 88.0715 1.1231 -180 -6.99617 -7.01671e-015 0 -1.186 -1.5018 -0.124643 -0.777099 -0.233125 0 9.964 0.2134 -0.252481 -1.55368 -0.468005 -7.10543e-015 13.134 -3.2573 -0.252482 -1.55368 -0.468005 0 20.686 -1.6905 -4.68305e-007 32.753 -2.86189e-005 0 7.238 -0.1237 -3.76016e-007 -71.7972 -1.75674e-007 1.7069 20.075 5.0056 -15.9057 -2.1455 30.6229 13.6458 -0.047 -4.849 1.73296 -2.71387 -73.4591 28.3255 -0.9759 2.2888 -22.0607 0.184602 -56.5477 22.1583 -0.53 10.8316 -44.0664 -36.3825 -20.0283 0.786 0.112 2.5817 -1.19777e-006 6.44175e-007 1.00308e-006 0.3601 -0.878 4.2331 -4.4017e-006 7.98725e-007 -3.89399e-007 1.8127 -1.216 2.2227 -2.00615e-006 -4.89625e-007 -2.39555e-006 0.9571 1.114 1.7695 2.57938e-031 -6.75868e-015 2.18663e-015 4.1246 0.487 4.1451 -1.19777e-006 6.44175e-007 1.00308e-006 3.4052 -1.454 2.7682 -4.4017e-006 7.98725e-007 -3.89399e-007 1.4531 -1.795 1.2713 -2.00615e-006 -4.89625e-007 -2.39555e-006 5.6954 0.21 2.1184 -1.19777e-006 6.44175e-007 1.00308e-006 3.9766 -1.54 2.3863 -4.4017e-006 7.98725e-007 -3.89399e-007 1.4042 -1.926 1.125 -2.00615e-006 -4.89625e-007 -2.39555e-006 2.0956 0.66 -0.3894 2.57938e-031 -6.75868e-015 2.18663e-015 5.0395 -0.09 2.4971 -1.19777e-006 6.44175e-007 1.00308e-006 3.7921 -1.552 1.4806 -4.4017e-006 7.98725e-007 -3.89399e-007 1.4655 -1.808 0.9609 -2.00615e-006 -4.89625e-007 -2.39555e-006 4.9141 -1.269 0.3591 -1.19777e-006 6.44175e-007 1.00308e-006 3.1477 -1.685 0.8462 -4.4017e-006 7.98725e-007 -3.89399e-007 0.8055 -1.585 0.7955 -2.00615e-006 -4.89625e-007 -2.39555e-006 -1.7069 20.075 5.0056 15.1089 -5.28526 -29.5586 -13.6458 -0.047 -4.849 -7.82799 1.59503 77.8071 -28.3255 -0.9759 2.2888 19.9336 -4.27845 55.4667 -22.1583 -0.53 10.8316 47.7125 -32.825 21.1261 -0.786 0.112 2.5817 -3.16805e-006 -3.65313e-007 -1.49334e-006 -0.3601 -0.878 4.2331 1.23095e-006 6.63457e-007 -9.68551e-007 -1.8127 -1.216 2.2227 -4.673e-006 6.63682e-006 -2.4298e-006 -0.9571 1.114 1.7695 -0 0 1.19271e-015 -4.1246 0.487 4.1451 -3.16805e-006 -3.65313e-007 -1.49334e-006 -3.4052 -1.454 2.7682 1.23095e-006 6.63457e-007 -9.68551e-007 -1.4531 -1.795 1.2713 -4.673e-006 6.63682e-006 -2.4298e-006 -5.6954 0.21 2.1184 -3.16805e-006 -3.65313e-007 -1.49334e-006 -3.9766 -1.54 2.3863 1.23095e-006 6.63457e-007 -9.68551e-007 -1.4042 -1.926 1.125 -4.673e-006 6.63682e-006 -2.4298e-006 -2.0956 0.66 -0.3894 -0 0 1.19271e-015 -5.0395 -0.09 2.4971 -3.16805e-006 -3.65313e-007 -1.49334e-006 -3.7921 -1.552 1.4806 1.23095e-006 6.63457e-007 -9.68551e-007 -1.4655 -1.808 0.9609 -4.673e-006 6.63682e-006 -2.4298e-006 -4.9141 -1.269 0.3592 -3.16805e-006 -3.65313e-007 -1.49334e-006 -3.1477 -1.685 0.8462 1.23095e-006 6.63457e-007 -9.68551e-007 -0.8055 -1.585 0.7955 -4.673e-006 6.63682e-006 -2.4298e-006 8.367 -8.2066 0.5982 35.1255 -52.2527 36.421 2.1923 -43.463 -0.4932 -110.719 37.5869 109.045 0.7333 -45.8593 -2.6451 33.5857 18.0039 -36.0565 -8.367 -8.2066 0.5982 -56.1227 -50.9137 -58.771 -2.1923 -43.463 -0.4931 114.121 39.2666 -105.365 -0.7333 -45.8593 -2.6451 -30.6296 22.1179 35.2868 
